<svg xmlns="http://www.w3.org/2000/svg"  viewBox="0 0 100 100" width="100px" height="100px"><path fill="#f05b6c" d="M94.996,51.558C95.24,65.549,83.425,77,69.432,77l-13.34,0c-0.781,0-1.531-0.304-2.091-0.848	L39.708,62.263C38.484,61.074,39.326,59,41.032,59H70c3.866,0,7-3.134,7-7v0c0-3.866-3.134-7-7-7H23.157	c-0.78,0-1.53-0.304-2.09-0.847L6.76,30.263C5.535,29.075,6.377,27,8.083,27L70,27C83.632,27,94.759,37.971,94.996,51.558z"/><path fill="#1f212b" d="M69.432,78h-13.34c-1.047,0-2.037-0.402-2.788-1.132L39.011,62.98	c-0.851-0.827-1.112-2.072-0.666-3.171S39.846,58,41.032,58H70c3.309,0,6-2.691,6-6s-2.691-6-6-6H23.157	c-1.046,0-2.035-0.401-2.786-1.13L6.063,30.98c-0.851-0.826-1.113-2.07-0.667-3.17C5.841,26.71,6.896,26,8.083,26H70	c14.089,0,25.751,11.458,25.996,25.54c0.119,6.859-2.526,13.396-7.45,18.406C83.516,75.064,76.549,78,69.432,78z M41.032,60	c-0.562,0-0.78,0.43-0.834,0.562c-0.053,0.132-0.197,0.592,0.207,0.984l14.294,13.889C55.074,75.799,55.568,76,56.092,76h13.34	c6.585,0,13.031-2.717,17.688-7.456c4.545-4.625,6.987-10.651,6.877-16.969l0,0C93.771,38.576,83.006,28,70,28H8.083	c-0.562,0-0.781,0.43-0.834,0.562s-0.196,0.592,0.207,0.983l14.308,13.89C22.139,43.799,22.634,44,23.157,44H70c4.411,0,8,3.589,8,8	s-3.589,8-8,8H41.032z"/><path fill="#1f212b" d="M84.623,66.591c-0.127,0-0.253-0.048-0.351-0.144c-0.197-0.193-0.199-0.51-0.006-0.707	c3.787-3.854,5.822-8.86,5.73-14.096C89.809,40.812,80.838,32,70,32H37.5c-0.276,0-0.5-0.224-0.5-0.5s0.224-0.5,0.5-0.5H70	c11.38,0,20.799,9.253,20.997,20.627c0.096,5.506-2.041,10.768-6.018,14.815C84.882,66.542,84.753,66.591,84.623,66.591z"/><path fill="#1f212b" d="M34.5,32h-5c-0.276,0-0.5-0.224-0.5-0.5s0.224-0.5,0.5-0.5h5c0.276,0,0.5,0.224,0.5,0.5	S34.776,32,34.5,32z"/><path fill="#1f212b" d="M26.5,32h-2c-0.276,0-0.5-0.224-0.5-0.5s0.224-0.5,0.5-0.5h2c0.276,0,0.5,0.224,0.5,0.5	S26.776,32,26.5,32z"/></svg>